# AST/ASF file generated using VICON BodyLanguage
# -----------------------------------------------
:version 1.10
:name VICON
:units
  mass 1.0
  length 0.45
  angle deg
:documentation
   .ast/.asf automatically generated from VICON data using
   VICON BodyBuilder and BodyLanguage model FoxedUp or BRILLIANT.MOD
:root
   order TX TY TZ RX RY RZ
   axis XYZ
   position 0 0 0  
   orientation 0 0 0 
:bonedata
  begin
     id 1 
     name lhipjoint
     direction 0.692814 -0.645514 0.321437 
     length 2.38754 
     axis 0 0 0  XYZ
  end
  begin
     id 2 
     name lfemur
     direction 0.34202 -0.939693 0  
     length 6.41921  
     axis 0 0 20  XYZ
    dof rx ry rz
    limits (-160.0 20.0)
           (-70.0 70.0)
           (-60.0 70.0)
  end
  begin
     id 3 
     name ltibia
     direction 0.34202 -0.939693 0   
     length 6.98247   
     axis 0 0 20   XYZ
    dof rx
    limits (-10.0 170.0)
  end
  begin
     id 4 
     name lfoot
     direction 0.0947186 -0.260237 0.960888   
     length 1.83034   
     axis -90 7.62852e-016 20   XYZ
    dof rx rz
    limits (-45.0 90.0)
           (-70.0 20.0)
  end
  begin
     id 5 
     name ltoes
     direction 1.53538e-011 -4.21952e-011 1   
     length 0.920499   
     axis -90 7.62852e-016 20   XYZ
    dof rx
    limits (-90.0 20.0)
  end
  begin
     id 6 
     name rhipjoint
     direction -0.631686 -0.693949 0.345555   
     length 2.2209  
     axis 0 0 0  XYZ 
  end
  begin
     id 7 
     name rfemur
     direction -0.34202 -0.939693 0   
     length 6.49542   
     axis 0 0 -20   XYZ
    dof rx ry rz
    limits (-160.0 20.0)
           (-70.0 70.0)
           (-70.0 60.0)
  end
  begin
     id 8 
     name rtibia
     direction -0.34202 -0.939693 0   
     length 7.21712   
     axis 0 0 -20   XYZ
    dof rx
    limits (-10.0 170.0)
 end
 begin
     id 9 
     name rfoot
     direction -0.0825378 -0.226771 0.970444   
     length 1.89724  
     axis -90 -7.62852e-016 -20   XYZ
    dof rx rz
    limits (-45.0 90.0)
           (-20.0 70.0)
  end
  begin
     id 10 
     name rtoes
     direction -1.53515e-011 -4.22016e-011 1   
     length 0.955868   
     axis -90 -7.62852e-016 -20   XYZ
    dof rx
    limits (-90.0 20.0)
  end
  begin
     id 11 
     name lowerback
     direction -0.0104711 0.984802 -0.173368   
     length 1.84931   
     axis 0 0 0   XYZ
    dof rx ry rz
    limits (-20.0 45.0)
           (-30.0 30.0)
           (-30.0 30.0)
  end
  begin
     id 12 
     name upperback
     direction -0.00286433 0.999996 -0.000382853   
     length 1.85768   
     axis 0 0 0   XYZ
    dof rx ry rz
    limits (-20.0 45.0)
           (-30.0 30.0)
           (-30.0 30.0)
  end
  begin
     id 13 
     name thorax
     direction 0.00167534 0.996793 0.0800069   
     length 1.92   
     axis 0 0 0   XYZ
    dof rx ry rz
    limits (-20.0 45.0)
           (-30.0 30.0)
           (-30.0 30.0)
  end
  begin
     id 14 
     name lowerneck
     direction -0.0672491 0.995415 0.068018   
     length 1.58923   
     axis 0 0 0   XYZ
    dof rx ry rz
    limits (-20.0 45.0)
           (-30.0 30.0)
           (-30.0 30.0)
  end
  begin
     id 15 
     name upperneck
     direction 0.0958019 0.982476 -0.159884   
     length 1.60189   
     axis 0 0 0   XYZ
    dof rx ry rz
    limits (-20.0 45.0)
           (-30.0 30.0)
           (-30.0 30.0)
  end
  begin
     id 16
     name head
     direction 0.032989 0.997338 -0.0650226  
     length 1.61681  
     axis 0 0 0   XYZ
    dof rx ry rz
    limits (-20.0 45.0)
           (-30.0 30.0)
           (-30.0 30.0)
  end
  begin
     id 17 
     name lclavicle
     direction 0.954279 0.298875 -0.00496069  
     length 2.99449  
     axis 0 0 0   XYZ
    dof ry rz
    limits (-20.0 10.0)
           (0.0 20.0)
  end
  begin
     id 18 
     name lhumerus
     direction 1 -4.48985e-011 -4.2057e-027   
     length 4.79185   
     axis 180 -30 -90   XYZ
    dof rx ry rz
    limits (-60.0 90.0)
           (-90.0 90.0)
           (-90.0 90.0)
  end
  begin
     id 19
     name lradius
     direction 1 -4.48945e-011 1.15441e-028   
     length 2.65553   
     axis 180 -30 -90   XYZ
    dof rx
    limits (-10.0 170.0)
  end
  begin
     id 20
     name lwrist
     direction 1 -4.4899e-011 4.8894e-028   
     length 1.32777   
     axis -2.56392e-016 90 90   XYZ
    dof ry
    limits (-180.0 0.0)
 end
  begin
     id 21 
     name lhand
     direction 1 -4.48908e-011 9.7788e-028   
     length 0.743904   
     axis -6.23971e-016 90 90   XYZ
    dof rx rz
    limits (-90.0 90.0)
           (-45.0 45.0)
  end
  begin
     id 22 
     name lfingers
     direction 1 -4.49068e-011 1.95576e-027   
     length 0.599754   
     axis -1.24794e-015 90 90   XYZ
    dof rx
    limits (0.0 90.0)
  end
  begin
     id 23
     name lthumb
     direction 0.707107 -6.34883e-011 0.707107   
     length 0.861131   
     axis -90 45 2.85299e-015   XYZ
    dof rx rz
    limits (-45.0 45.0)
           (-45.0 45.0)
  end
  begin
     id 24 
     name rclavicle
     direction -0.957921 0.286916 0.00811568   
     length 3.06817  
     axis 0 0 0   XYZ 
    dof ry rz
    limits (-10.0 20.0)
           (-20.0 0.0)
  end
  begin
     id 25 
     name rhumerus
     direction -1 -4.48971e-011 -3.07942e-027  
     length 4.77254   
     axis 180 30 90   XYZ
    dof rx ry rz
    limits (-90.0 60.0)
           (-90.0 90.0)
           (-90.0 90.0)
  end
  begin
     id 26 
     name rradius
     direction -1 -4.48957e-011 -9.6815e-028   
     length 2.75995   
     axis 180 30 90   XYZ
    dof rx
    limits (-10.0 170.0)
  end
  begin
     id 27 
     name rwrist
     direction -1 -4.48979e-011 4.8894e-028   
     length 1.37997   
     axis -2.56392e-016 -90 -90   XYZ
    dof ry
    limits (-180.0 0.0)
  end
  begin
     id 28
     name rhand
     direction -1 -4.48906e-011 9.7788e-028   
     length 0.701619   
     axis -6.23971e-016 -90 -90   XYZ
    dof rx rz
    limits (-90.0 90.0)
           (-45.0 45.0)
  end
  begin
     id 29
     name rfingers
     direction -1 -4.49018e-011 1.95576e-027   
     length 0.565663   
     axis -1.24794e-015 -90 -90   XYZ
    dof rx
    limits (0.0 90.0)
  end
  begin
     id 30
     name rthumb
     direction -0.707107 -6.34881e-011 0.707107   
     length 0.812183   
     axis -90 -45 -2.85299e-015   XYZ
    dof rx rz
    limits (-45.0 45.0)
           (-45.0 45.0)
  end
:hierarchy
  begin
    root lhipjoint rhipjoint lowerback
    lhipjoint lfemur
    lfemur ltibia
    ltibia lfoot
    lfoot ltoes
    rhipjoint rfemur
    rfemur rtibia
    rtibia rfoot
    rfoot rtoes
    lowerback upperback
    upperback thorax
    thorax lowerneck lclavicle rclavicle
    lowerneck upperneck
    upperneck head
    lclavicle lhumerus
    lhumerus lradius
    lradius lwrist
    lwrist lhand lthumb
    lhand lfingers
    rclavicle rhumerus
    rhumerus rradius
    rradius rwrist
    rwrist rhand rthumb
    rhand rfingers
  end

#!OML:ASF F:\VICON\USERDATA\INSTALL\rory3\rory3.ASF
:FULLY-SPECIFIED
:DEGREES
203
root 0.142106 16.0716 -0.120129 -4.85219 2.2156 0.312356
lowerback 12.8769 0.211639 -1.15931
upperback 0.247375 0.0917983 -0.249557
thorax -6.97392 0.0795679 0.37418
lowerneck -7.51945 -13.5989 -18.6646
upperneck 24.119 -17.8552 7.07711
head 11.4698 -9.19264 3.04938
rclavicle -8.60365e-016 6.16232e-015
rhumerus -35.7972 8.31699 -88.7705
rradius 29.7822
rwrist 6.91092
rhand -14.194 11.7231
rfingers 7.12502
rthumb 11.942 -17.9163
lclavicle -8.60365e-016 6.16232e-015
lhumerus -29.1357 -2.07422 88.8398
lradius 22.7889
lwrist -3.98406
lhand -10.0664 14.244
lfingers 7.12502
lthumb 15.9197 43.6097
rfemur 4.05623 10.5118 18.091
rtibia 16.1742
rfoot -12.236 -12.9077
rtoes -5.25416
lfemur 9.52292 -11.9129 -18.5292
ltibia 2.74818
lfoot -4.2548 9.24217
ltoes -12.4412
204
root 0.142187 16.0748 -0.117177 -4.74555 2.17592 0.315023
lowerback 12.7003 0.196126 -1.06388
upperback 0.110478 0.0847341 -0.275595
thorax -7.02014 0.0730818 0.294088
lowerneck -7.20559 -13.6408 -18.851
upperneck 24.3429 -17.8912 6.817
head 11.4967 -9.2636 2.99179
rclavicle 3.63714e-015 -1.14301e-014
rhumerus -35.8859 8.28123 -88.9194
rradius 29.9128
rwrist 6.8387
rhand -14.2442 11.7766
rfingers 7.12502
rthumb 11.8937 -17.8656
lclavicle 3.63714e-015 -1.14301e-014
lhumerus -29.3117 -2.33336 89.0661
lradius 23.1467
lwrist -3.45222
lhand -10.1136 13.9174
lfingers 7.12502
lthumb 15.8743 43.2867
rfemur 4.02269 10.5203 18.0675
rtibia 16.0364
rfoot -12.2422 -12.8591
rtoes -4.90753
lfemur 10.2086 -11.8741 -18.5027
ltibia 1.25627
lfoot -3.58635 9.33175
ltoes -12.1811
205
root 0.141122 16.0777 -0.114131 -4.70087 2.10818 0.273637
lowerback 12.6191 0.187749 -0.925729
upperback -0.015752 0.0913052 -0.311509
thorax -7.10878 0.0715201 0.176729
lowerneck -7.05453 -13.6779 -18.9141
upperneck 24.7192 -17.8991 6.47397
head 11.5872 -9.3161 2.87977
rclavicle -1.21134e-015 -1.2424e-014
rhumerus -36.0081 8.24883 -89.1183
rradius 30.1141
rwrist 6.70519
rhand -14.0449 11.788
rfingers 7.12502
rthumb 12.0858 -17.843
lclavicle -1.21134e-015 -1.2424e-014
lhumerus -29.4863 -2.71218 89.2972
lradius 23.5724
lwrist -2.77634
lhand -10.1141 13.768
lfingers 7.12502
lthumb 15.8738 43.1373
rfemur 4.05469 10.5109 18.0989
rtibia 15.8702
rfoot -12.2088 -12.7566
rtoes -4.59992
lfemur 10.8392 -11.8137 -18.4342
ltibia 7.95139e-015
lfoot -2.99588 9.40649
ltoes -11.8605
206
root 0.1404 16.0813 -0.110935 -4.64287 2.04039 0.276546
lowerback 12.4868 0.171642 -0.87444
upperback -0.125358 0.0761058 -0.33921
thorax -7.1508 0.0621642 0.121303
lowerneck -6.93048 -13.6926 -19.0138
upperneck 25.153 -17.8815 6.18294
head 11.7119 -9.35543 2.79261
rclavicle 3.57191e-015 1.31198e-014
rhumerus -36.1207 8.37697 -89.3316
rradius 30.3508
rwrist 6.47364
rhand -13.6936 11.5213
rfingers 7.12502
rthumb 12.4245 -18.0894
lclavicle 3.57191e-015 1.31198e-014
lhumerus -29.6202 -2.90283 89.5198
lradius 24.1754
lwrist -2.21064
lhand -10.0387 14.3783
lfingers 7.12502
lthumb 15.9463 43.7419
rfemur 4.05449 10.4677 18.0661
rtibia 15.7302
rfoot -12.1259 -12.637
rtoes -4.42813
lfemur 10.8129 -11.7471 -18.4226
ltibia 2.22639e-014
lfoot -3.0149 9.42403
ltoes -12.0995
207
root 0.140153 16.0832 -0.106914 -4.56056 1.95178 0.214727
lowerback 12.2343 0.158014 -0.810536
upperback -0.184548 0.0727504 -0.297251
thorax -7.07117 0.058921 0.130579
lowerneck -6.82784 -13.7115 -19.1966
upperneck 25.5642 -17.8537 5.9151
head 11.844 -9.39431 2.7243
rclavicle -3.82195e-015 1.33186e-014
rhumerus -36.1195 8.55351 -89.4642
rradius 30.5492
rwrist 6.25009
rhand -13.6217 11.2314
rfingers 7.12502
rthumb 12.4938 -18.3751
lclavicle -3.82195e-015 1.33186e-014
lhumerus -29.6906 -2.89342 89.7404
lradius 24.8281
lwrist -1.93481
lhand -9.87912 15.0822
lfingers 7.12502
lthumb 16.1 44.4334
rfemur 4.01713 10.4617 18.1128
rtibia 15.6124
rfoot -12.0546 -12.5722
rtoes -4.52056
lfemur 10.7641 -11.6659 -18.327
ltibia 7.15625e-015
lfoot -3.09819 9.43154
ltoes -12.3591
208
root 0.139322 16.0851 -0.104421 -4.47092 1.90308 0.258856
lowerback 12.0172 0.162019 -0.856804
upperback -0.259222 0.0732802 -0.298824
thorax -7.02809 0.0608294 0.155223
lowerneck -6.71871 -13.7351 -19.3032
upperneck 26.028 -17.844 5.62604
head 11.9884 -9.43866 2.63396
rclavicle -2.63661e-015 -1.11319e-014
rhumerus -36.209 8.68968 -89.603
rradius 30.8223
rwrist 6.02084
rhand -13.6995 11.1128
rfingers 7.12502
rthumb 12.4188 -18.4983
lclavicle -2.63661e-015 -1.11319e-014
lhumerus -29.7939 -3.0709 89.9616
lradius 25.3735
lwrist -1.39471
lhand -9.95345 15.0134
lfingers 7.12502
lthumb 16.0285 44.3704
rfemur 3.98567 10.3823 18.031
rtibia 15.4737
rfoot -12.001 -12.4629
rtoes -4.80704
lfemur 10.6881 -11.6154 -18.342
ltibia -1.98785e-014
lfoot -3.12044 9.4078
ltoes -11.8323
209
root 0.137984 16.0872 -0.101528 -4.40515 1.86523 0.299344
lowerback 11.8438 0.150228 -0.882946
upperback -0.350744 0.0530259 -0.330036
thorax -7.02728 0.0514967 0.140771
lowerneck -6.63642 -13.7432 -19.3434
upperneck 26.6438 -17.8205 5.30887
head 12.1874 -9.47644 2.52194
rclavicle -1.13039e-015 -6.55989e-015
rhumerus -36.3507 8.80305 -89.8092
rradius 31.1187
rwrist 5.86426
rhand -13.8166 11.0873
rfingers 7.12502
rthumb 12.306 -18.5305
lclavicle -1.13039e-015 -6.55989e-015
lhumerus -29.933 -3.17655 90.0854
lradius 25.8874
lwrist -0.852673
lhand -10.066 14.8604
lfingers 7.12502
lthumb 15.9201 44.226
rfemur 4.02078 10.3994 17.9765
rtibia 15.2857
rfoot -11.9481 -12.414
rtoes -4.72679
lfemur 10.6302 -11.5762 -18.3639
ltibia 2.54444e-014
lfoot -3.10391 9.39615
ltoes -11.6095
210
root 0.136674 16.0887 -0.0994359 -4.39778 1.81284 0.155421
lowerback 11.7361 0.121746 -0.710077
upperback -0.443735 0.0409855 -0.312819
thorax -7.06507 0.0399787 0.0634831
lowerneck -6.55038 -13.7244 -19.3678
upperneck 27.2694 -17.7589 4.98774
head 12.3846 -9.49777 2.41271
rclavicle 5.1653e-015 1.2424e-014
rhumerus -36.4734 8.9427 -90.0135
rradius 31.3509
rwrist 5.67475
rhand -13.9087 11.2759
rfingers 7.12502
rthumb 12.2171 -18.3473
lclavicle 5.1653e-015 1.2424e-014
lhumerus -30.1623 -3.50287 90.3133
lradius 26.4988
lwrist 0.0519276
lhand -10.353 14.836
lfingers 7.12502
lthumb 15.6437 44.2235
rfemur 4.11476 10.4524 18.145
rtibia 15.0945
rfoot -11.8592 -12.3956
rtoes -4.39615
lfemur 10.6392 -11.5401 -18.197
ltibia -1.66979e-014
lfoot -3.16162 9.42708
ltoes -12.0452
211
root 0.135934 16.0899 -0.0981655 -4.39941 1.76861 0.0165386
lowerback 11.6355 0.0884363 -0.560758
upperback -0.515142 0.0208297 -0.271178
thorax -7.08387 0.0256213 0.0267098
lowerneck -6.58266 -13.7012 -19.413
upperneck 27.9375 -17.6613 4.66113
head 12.6226 -9.50313 2.29991
rclavicle 7.76503e-017 7.95139e-016
rhumerus -36.5286 9.08424 -90.1468
rradius 31.5084
rwrist 5.59945
rhand -13.9492 11.8305
rfingers 7.12502
rthumb 12.1781 -17.7951
lclavicle 7.76503e-017 7.95139e-016
lhumerus -30.3709 -4.08641 90.6832
lradius 27.038
lwrist 1.27458
lhand -10.8294 14.4581
lfingers 7.12502
lthumb 15.1848 43.881
rfemur 4.20928 10.3667 18.2798
rtibia 14.8984
rfoot -11.7636 -12.2927
rtoes -4.24744
lfemur 10.6658 -11.5118 -18.0395
ltibia -3.18055e-015
lfoot -3.23127 9.43749
ltoes -12.1852
212
root 0.13489 16.0899 -0.0959495 -4.41405 1.70762 -0.0528176
lowerback 11.515 0.0689871 -0.501481
upperback -0.549079 0.00518349 -0.252468
thorax -7.0516 0.0161442 0.0158176
lowerneck -6.63863 -13.6844 -19.4129
upperneck 28.5714 -17.5856 4.38139
head 12.8571 -9.50867 2.19213
rclavicle -8.43282e-016 6.85807e-015
rhumerus -36.554 9.24471 -90.2956
rradius 31.6733
rwrist 5.54713
rhand -13.9571 12.2895
rfingers 7.12502
rthumb 12.1705 -17.3365
lclavicle -8.43282e-016 6.85807e-015
lhumerus -30.4701 -4.46266 90.886
lradius 27.5547
lwrist 1.92441
lhand -10.8028 14.0873
lfingers 7.12502
lthumb 15.2105 43.5082
rfemur 4.30512 10.2766 18.3452
rtibia 14.717
rfoot -11.6484 -12.1957
rtoes -4.74956
lfemur 10.7083 -11.4625 -17.9502
ltibia -7.95139e-016
lfoot -3.23019 9.37196
ltoes -11.6764
213
root 0.133295 16.0892 -0.0928002 -4.39304 1.63417 0.0187776
lowerback 11.3297 0.0701374 -0.597771
upperback -0.563862 -0.00652848 -0.273509
thorax -6.96216 0.0133814 0.0501495
lowerneck -6.67362 -13.6479 -19.4059
upperneck 29.0932 -17.5142 4.22028
head 13.0553 -9.50228 2.13038
rclavicle 2.842e-015 -2.98177e-015
rhumerus -36.5507 9.54848 -90.5204
rradius 31.869
rwrist 5.11614
rhand -14.027 12.4342
rfingers 7.12502
rthumb 12.1031 -17.1957
lclavicle 2.842e-015 -2.98177e-015
lhumerus -30.4865 -4.6759 91.0046
lradius 28.0719
lwrist 2.33066
lhand -10.8143 13.8299
lfingers 7.12502
lthumb 15.1994 43.2516
rfemur 4.35229 10.3157 18.266
rtibia 14.5603
rfoot -11.5684 -12.1632
rtoes -4.65392
lfemur 10.7059 -11.3869 -18.0078
ltibia -8.74653e-015
lfoot -3.24075 9.32602
ltoes -11.4914
214
root 0.132458 16.0893 -0.0897163 -4.38346 1.5839 0.0561377
lowerback 11.1664 0.0715569 -0.661121
upperback -0.566097 -0.0123213 -0.282277
thorax -6.87185 0.0124656 0.0777738
lowerneck -6.6873 -13.5956 -19.3451
upperneck 29.4751 -17.4418 4.11793
head 13.1913 -9.4824 2.08888
rclavicle -3.02681e-015 -7.05686e-015
rhumerus -36.4888 9.82732 -90.7108
rradius 32.052
rwrist 4.59618
rhand -14.1427 12.2513
rfingers 7.12502
rthumb 11.9915 -17.3852
lclavicle -3.02681e-015 -7.05686e-015
lhumerus -30.4946 -5.05662 91.2212
lradius 28.5991
lwrist 2.93986
lhand -11.005 13.6603
lfingers 7.12502
lthumb 15.0157 43.0958
rfemur 4.40413 10.289 18.2114
rtibia 14.4448
rfoot -11.5414 -12.0854
rtoes -4.43697
lfemur 10.7175 -11.3368 -18.0401
ltibia -1.19271e-014
lfoot -3.29225 9.33766
ltoes -11.6999
215
root 0.130229 16.0894 -0.0883115 -4.43768 1.51129 -0.138854
lowerback 11.1046 0.0727298 -0.506122
upperback -0.555638 0.0145111 -0.223161
thorax -6.82575 0.0210312 0.0481361
lowerneck -6.64168 -13.5391 -19.2995
upperneck 29.6975 -17.3917 4.11136
head 13.2631 -9.46263 2.08929
rclavicle -5.68711e-015 -1.95803e-014
rhumerus -36.4849 10.0575 -90.8579
rradius 32.3069
rwrist 4.31195
rhand -14.3036 12.1781
rfingers 7.12502
rthumb 11.8364 -17.4674
lclavicle -5.68711e-015 -1.95803e-014
lhumerus -30.5142 -5.45858 91.4154
lradius 29.1307
lwrist 3.38871
lhand -10.9492 13.7097
lfingers 7.12502
lthumb 15.0694 43.1412
rfemur 4.50055 10.2925 18.4434
rtibia 14.3449
rfoot -11.4999 -12.0267
rtoes -4.21587
lfemur 10.795 -11.2889 -17.8166
ltibia 1.98785e-014
lfoot -3.3282 9.3369
ltoes -11.7898
216
root 0.128327 16.0894 -0.0864117 -4.47562 1.47118 -0.216901
lowerback 11.0301 0.0764695 -0.451756
upperback -0.536024 0.0273513 -0.22213
thorax -6.76265 0.0252695 0.0165172
lowerneck -6.59946 -13.4853 -19.1795
upperneck 29.8018 -17.368 4.159
head 13.2851 -9.43894 2.09834
rclavicle -4.27076e-016 -4.07509e-015
rhumerus -36.4631 10.0649 -90.9467
rradius 32.5262
rwrist 4.27742
rhand -14.4672 12.3753
rfingers 7.12502
rthumb 11.6786 -17.2792
lclavicle -4.27076e-016 -4.07509e-015
lhumerus -30.5261 -5.75026 91.5102
lradius 29.64
lwrist 3.60894
lhand -10.6134 13.7957
lfingers 7.12502
lthumb 15.3929 43.2027
rfemur 4.58135 10.2834 18.5385
rtibia 14.259
rfoot -11.5027 -11.9734
rtoes -4.19533
lfemur 10.8596 -11.2628 -17.7201
ltibia -2.38542e-015
lfoot -3.3802 9.30045
ltoes -11.7511
217
root 0.127299 16.0891 -0.0845933 -4.47441 1.47607 -0.241194
lowerback 10.8937 0.0433369 -0.440768
upperback -0.495959 -0.0159488 -0.24735
thorax -6.64267 0.00301029 -0.008853
lowerneck -6.57151 -13.4183 -18.9885
upperneck 29.7378 -17.3356 4.24722
head 13.2321 -9.39682 2.11836
rclavicle -6.12505e-015 -8.15017e-015
rhumerus -36.3978 10.1851 -91.1055
rradius 32.777
rwrist 4.07228
rhand -14.4398 12.3996
rfingers 7.12502
rthumb 11.705 -17.2534
lclavicle -6.12505e-015 -8.15017e-015
lhumerus -30.4726 -5.88272 91.4972
lradius 30.1008
lwrist 3.6105
lhand -10.6679 13.4751
lfingers 7.12502
lthumb 15.3404 42.8861
rfemur 4.63463 10.2191 18.5561
rtibia 14.1601
rfoot -11.4595 -11.9307
rtoes -4.58629
lfemur 10.8669 -11.2734 -17.6896
ltibia 1.98785e-014
lfoot -3.38987 9.30164
ltoes -11.7484
